<mxfile host="65bd71144e">
    <diagram id="wc9KDzvP1e7rgzjda8q1" name="var 1">
        <mxGraphModel dx="442" dy="574" grid="1" gridSize="10" guides="1" tooltips="1" connect="1" arrows="1" fold="1" page="1" pageScale="1" pageWidth="827" pageHeight="1169" math="0" shadow="0">
            <root>
                <mxCell id="0"/>
                <mxCell id="1" parent="0"/>
                <mxCell id="7" value="" style="edgeStyle=none;html=1;" parent="1" source="2" target="5" edge="1">
                    <mxGeometry relative="1" as="geometry"/>
                </mxCell>
                <mxCell id="2" value="Start" style="rounded=1;whiteSpace=wrap;html=1;" parent="1" vertex="1">
                    <mxGeometry x="280" y="10" width="160" height="60" as="geometry"/>
                </mxCell>
                <mxCell id="3" value="Stop" style="rounded=1;whiteSpace=wrap;html=1;" parent="1" vertex="1">
                    <mxGeometry x="280" y="400" width="160" height="60" as="geometry"/>
                </mxCell>
                <mxCell id="9" value="" style="edgeStyle=none;html=1;" parent="1" source="4" target="6" edge="1">
                    <mxGeometry relative="1" as="geometry"/>
                </mxCell>
                <mxCell id="4" value="Summe bilden" style="rounded=0;whiteSpace=wrap;html=1;" parent="1" vertex="1">
                    <mxGeometry x="280" y="200" width="160" height="60" as="geometry"/>
                </mxCell>
                <mxCell id="8" value="" style="edgeStyle=none;html=1;" parent="1" source="5" target="4" edge="1">
                    <mxGeometry relative="1" as="geometry"/>
                </mxCell>
                <mxCell id="5" value="Zahlen eingeben" style="shape=parallelogram;perimeter=parallelogramPerimeter;whiteSpace=wrap;html=1;fixedSize=1;" parent="1" vertex="1">
                    <mxGeometry x="280" y="110" width="160" height="60" as="geometry"/>
                </mxCell>
                <mxCell id="10" value="" style="edgeStyle=none;html=1;" parent="1" source="6" target="3" edge="1">
                    <mxGeometry relative="1" as="geometry"/>
                </mxCell>
                <mxCell id="6" value="Summe ausgeben" style="shape=parallelogram;perimeter=parallelogramPerimeter;whiteSpace=wrap;html=1;fixedSize=1;" parent="1" vertex="1">
                    <mxGeometry x="280" y="300" width="160" height="60" as="geometry"/>
                </mxCell>
            </root>
        </mxGraphModel>
    </diagram>
    <diagram name="var 2" id="D8uGY1LIz6ToED8DqKfh">
        <mxGraphModel dx="442" dy="574" grid="1" gridSize="10" guides="1" tooltips="1" connect="1" arrows="1" fold="1" page="1" pageScale="1" pageWidth="827" pageHeight="1169" math="0" shadow="0">
            <root>
                <mxCell id="7X0c2EODlcpk0bV6DG6n-0"/>
                <mxCell id="7X0c2EODlcpk0bV6DG6n-1" parent="7X0c2EODlcpk0bV6DG6n-0"/>
                <mxCell id="7X0c2EODlcpk0bV6DG6n-2" value="" style="edgeStyle=none;html=1;" parent="7X0c2EODlcpk0bV6DG6n-1" source="7X0c2EODlcpk0bV6DG6n-3" target="7X0c2EODlcpk0bV6DG6n-8" edge="1">
                    <mxGeometry relative="1" as="geometry"/>
                </mxCell>
                <mxCell id="7X0c2EODlcpk0bV6DG6n-3" value="Start" style="rounded=1;whiteSpace=wrap;html=1;" parent="7X0c2EODlcpk0bV6DG6n-1" vertex="1">
                    <mxGeometry x="280" y="10" width="160" height="60" as="geometry"/>
                </mxCell>
                <mxCell id="7X0c2EODlcpk0bV6DG6n-4" value="Stop" style="rounded=1;whiteSpace=wrap;html=1;" parent="7X0c2EODlcpk0bV6DG6n-1" vertex="1">
                    <mxGeometry x="280" y="540" width="160" height="60" as="geometry"/>
                </mxCell>
                <mxCell id="7X0c2EODlcpk0bV6DG6n-5" value="" style="edgeStyle=none;html=1;" parent="7X0c2EODlcpk0bV6DG6n-1" source="7X0c2EODlcpk0bV6DG6n-6" target="7X0c2EODlcpk0bV6DG6n-10" edge="1">
                    <mxGeometry relative="1" as="geometry"/>
                </mxCell>
                <mxCell id="7X0c2EODlcpk0bV6DG6n-6" value="Summe bilden" style="rounded=0;whiteSpace=wrap;html=1;" parent="7X0c2EODlcpk0bV6DG6n-1" vertex="1">
                    <mxGeometry x="280" y="320" width="160" height="60" as="geometry"/>
                </mxCell>
                <mxCell id="8Yl9UtnUXF4p_8fxSSrv-0" value="" style="edgeStyle=none;html=1;" parent="7X0c2EODlcpk0bV6DG6n-1" source="7X0c2EODlcpk0bV6DG6n-8" target="c3C5ypRP09V03sj9eklC-0" edge="1">
                    <mxGeometry relative="1" as="geometry"/>
                </mxCell>
                <mxCell id="7X0c2EODlcpk0bV6DG6n-8" value="Ziffern eingeben" style="shape=parallelogram;perimeter=parallelogramPerimeter;whiteSpace=wrap;html=1;fixedSize=1;" parent="7X0c2EODlcpk0bV6DG6n-1" vertex="1">
                    <mxGeometry x="280" y="110" width="160" height="60" as="geometry"/>
                </mxCell>
                <mxCell id="7X0c2EODlcpk0bV6DG6n-9" value="" style="edgeStyle=none;html=1;" parent="7X0c2EODlcpk0bV6DG6n-1" source="7X0c2EODlcpk0bV6DG6n-10" target="7X0c2EODlcpk0bV6DG6n-4" edge="1">
                    <mxGeometry relative="1" as="geometry"/>
                </mxCell>
                <mxCell id="7X0c2EODlcpk0bV6DG6n-10" value="Summe ausgeben" style="shape=parallelogram;perimeter=parallelogramPerimeter;whiteSpace=wrap;html=1;fixedSize=1;" parent="7X0c2EODlcpk0bV6DG6n-1" vertex="1">
                    <mxGeometry x="280" y="430" width="160" height="60" as="geometry"/>
                </mxCell>
                <mxCell id="8Yl9UtnUXF4p_8fxSSrv-1" value="" style="edgeStyle=none;html=1;" parent="7X0c2EODlcpk0bV6DG6n-1" source="c3C5ypRP09V03sj9eklC-0" target="7X0c2EODlcpk0bV6DG6n-6" edge="1">
                    <mxGeometry relative="1" as="geometry"/>
                </mxCell>
                <mxCell id="c3C5ypRP09V03sj9eklC-0" value="Ziffern in Zahlen &lt;br&gt;konvertieren" style="rounded=0;whiteSpace=wrap;html=1;" parent="7X0c2EODlcpk0bV6DG6n-1" vertex="1">
                    <mxGeometry x="280" y="220" width="160" height="60" as="geometry"/>
                </mxCell>
            </root>
        </mxGraphModel>
    </diagram>
</mxfile>